<svg width="80" height="80" viewBox="0 0 80 80" fill="none" xmlns="http://www.w3.org/2000/svg">
<g clip-path="url(#clip0_13_15)">
<path d="M67.5 12.5H12.5C11.1739 12.5 9.90215 13.0268 8.96447 13.9645C8.02678 14.9021 7.5 16.1739 7.5 17.5V62.5C7.5 63.8261 8.02678 65.0979 8.96447 66.0355C9.90215 66.9732 11.1739 67.5 12.5 67.5H16.6844C17.1575 67.5002 17.621 67.366 18.0209 67.1132C18.4209 66.8604 18.7409 66.4993 18.9437 66.0719C20.1594 63.5052 22.0788 61.3365 24.4786 59.8177C26.8784 58.299 29.66 57.4928 32.5 57.4928C35.34 57.4928 38.1216 58.299 40.5214 59.8177C42.9212 61.3365 44.8406 63.5052 46.0563 66.0719C46.2591 66.4993 46.5791 66.8604 46.9791 67.1132C47.379 67.366 47.8425 67.5002 48.3156 67.5H67.5C68.8261 67.5 70.0979 66.9732 71.0355 66.0355C71.9732 65.0979 72.5 63.8261 72.5 62.5V17.5C72.5 16.1739 71.9732 14.9021 71.0355 13.9645C70.0979 13.0268 68.8261 12.5 67.5 12.5ZM32.5 52.5C30.5222 52.5 28.5888 51.9135 26.9443 50.8147C25.2998 49.7159 24.0181 48.1541 23.2612 46.3268C22.5043 44.4996 22.3063 42.4889 22.6921 40.5491C23.078 38.6093 24.0304 36.8275 25.4289 35.4289C26.8275 34.0304 28.6093 33.078 30.5491 32.6921C32.4889 32.3063 34.4996 32.5043 36.3268 33.2612C38.1541 34.0181 39.7159 35.2998 40.8147 36.9443C41.9135 38.5888 42.5 40.5222 42.5 42.5C42.5 45.1522 41.4464 47.6957 39.5711 49.5711C37.6957 51.4464 35.1522 52.5 32.5 52.5ZM67.5 62.5H49.8219C48.732 60.6208 47.3429 58.932 45.7094 57.5H60C60.663 57.5 61.2989 57.2366 61.7678 56.7678C62.2366 56.2989 62.5 55.663 62.5 55V25C62.5 24.337 62.2366 23.7011 61.7678 23.2322C61.2989 22.7634 60.663 22.5 60 22.5H20C19.337 22.5 18.7011 22.7634 18.2322 23.2322C17.7634 23.7011 17.5 24.337 17.5 25V55C17.4997 55.5545 17.6838 56.0933 18.0232 56.5317C18.3626 56.9701 18.8382 57.2833 19.375 57.4219C17.7038 58.8698 16.2854 60.586 15.1781 62.5H12.5V17.5H67.5V62.5Z" fill="#008A01"/>
</g>
<defs>
<clipPath id="clip0_13_15">
<rect width="80" height="80" fill="white"/>
</clipPath>
</defs>
</svg>
