<svg width="80" height="80" viewBox="0 0 80 80" fill="none" xmlns="http://www.w3.org/2000/svg">
<g clip-path="url(#clip0_13_7)">
<path d="M30 35.5906L33.4562 42.5H26.5438L30 35.5906ZM72.5 17.5V67.5C72.5003 67.9264 72.3916 68.3457 72.1841 68.7182C71.9767 69.0907 71.6774 69.4039 71.3148 69.6282C70.9521 69.8524 70.5382 69.9801 70.1122 69.9993C69.6863 70.0184 69.2625 69.9283 68.8812 69.7375L60 65.2938L51.1188 69.7375C50.7714 69.9113 50.3884 70.0018 50 70.0018C49.6116 70.0018 49.2286 69.9113 48.8812 69.7375L40 65.2938L31.1188 69.7375C30.7714 69.9113 30.3884 70.0018 30 70.0018C29.6116 70.0018 29.2286 69.9113 28.8812 69.7375L20 65.2938L11.1188 69.7375C10.7375 69.9283 10.3137 70.0184 9.88778 69.9993C9.46185 69.9801 9.04789 69.8524 8.68525 69.6282C8.32261 69.4039 8.02334 69.0907 7.81589 68.7182C7.60844 68.3457 7.4997 67.9264 7.5 67.5V17.5C7.5 16.1739 8.02678 14.9021 8.96447 13.9645C9.90215 13.0268 11.1739 12.5 12.5 12.5H67.5C68.8261 12.5 70.0979 13.0268 71.0355 13.9645C71.9732 14.9021 72.5 16.1739 72.5 17.5ZM42.2375 48.8813L32.2375 28.8813C32.0302 28.4652 31.7109 28.1153 31.3157 27.8706C30.9204 27.626 30.4648 27.4964 30 27.4964C29.5352 27.4964 29.0796 27.626 28.6843 27.8706C28.2891 28.1153 27.9698 28.4652 27.7625 28.8813L17.7625 48.8813C17.4658 49.4747 17.417 50.1617 17.6268 50.7911C17.8366 51.4205 18.2878 51.9408 18.8813 52.2375C19.4747 52.5342 20.1617 52.583 20.7911 52.3732C21.4205 52.1634 21.9408 51.7122 22.2375 51.1188L24.0438 47.5H35.9562L37.7625 51.1188C37.9094 51.4126 38.1128 51.6746 38.3609 51.8898C38.6091 52.1051 38.8973 52.2693 39.2089 52.3732C39.5206 52.4771 39.8496 52.5186 40.1773 52.4953C40.505 52.472 40.8249 52.3844 41.1188 52.2375C41.4126 52.0906 41.6746 51.8872 41.8898 51.6391C42.1051 51.3909 42.2693 51.1027 42.3732 50.7911C42.4771 50.4794 42.5186 50.1504 42.4953 49.8227C42.472 49.495 42.3844 49.1751 42.2375 48.8813ZM65 40C65 39.337 64.7366 38.7011 64.2678 38.2322C63.7989 37.7634 63.163 37.5 62.5 37.5H57.5V32.5C57.5 31.837 57.2366 31.2011 56.7678 30.7322C56.2989 30.2634 55.663 30 55 30C54.337 30 53.7011 30.2634 53.2322 30.7322C52.7634 31.2011 52.5 31.837 52.5 32.5V37.5H47.5C46.837 37.5 46.2011 37.7634 45.7322 38.2322C45.2634 38.7011 45 39.337 45 40C45 40.663 45.2634 41.2989 45.7322 41.7678C46.2011 42.2366 46.837 42.5 47.5 42.5H52.5V47.5C52.5 48.163 52.7634 48.7989 53.2322 49.2678C53.7011 49.7366 54.337 50 55 50C55.663 50 56.2989 49.7366 56.7678 49.2678C57.2366 48.7989 57.5 48.163 57.5 47.5V42.5H62.5C63.163 42.5 63.7989 42.2366 64.2678 41.7678C64.7366 41.2989 65 40.663 65 40Z" fill="#008A01"/>
</g>
<defs>
<clipPath id="clip0_13_7">
<rect width="80" height="80" fill="white"/>
</clipPath>
</defs>
</svg>
