<svg width="35" height="35" viewBox="0 0 35 35" fill="none" xmlns="http://www.w3.org/2000/svg">
<rect width="35" height="35" rx="17.5" fill="#008A01"/>
<path d="M22.5 9.00005C22.5 8.86745 22.4473 8.74027 22.3536 8.6465C22.2598 8.55273 22.1326 8.50005 22 8.50005H19.5C18.2411 8.43734 17.0086 8.87544 16.0717 9.71863C15.1348 10.5618 14.5698 11.7415 14.5 13.0001V15.7001H12C11.8674 15.7001 11.7402 15.7527 11.6464 15.8465C11.5527 15.9403 11.5 16.0674 11.5 16.2001V18.8001C11.5 18.9327 11.5527 19.0598 11.6464 19.1536C11.7402 19.2474 11.8674 19.3001 12 19.3001H14.5V26.0001C14.5 26.1327 14.5527 26.2598 14.6464 26.3536C14.7402 26.4474 14.8674 26.5001 15 26.5001H18C18.1326 26.5001 18.2598 26.4474 18.3536 26.3536C18.4473 26.2598 18.5 26.1327 18.5 26.0001V19.3001H21.12C21.2312 19.3017 21.3397 19.2661 21.4285 19.1991C21.5172 19.1321 21.5811 19.0374 21.61 18.9301L22.33 16.3301C22.3499 16.2562 22.3526 16.1787 22.3378 16.1036C22.3231 16.0286 22.2913 15.9579 22.2449 15.897C22.1985 15.8362 22.1388 15.7868 22.0704 15.7526C22.0019 15.7185 21.9265 15.7005 21.85 15.7001H18.5V13.0001C18.5249 12.7525 18.6411 12.5232 18.826 12.3567C19.0109 12.1903 19.2512 12.0988 19.5 12.1001H22C22.1326 12.1001 22.2598 12.0474 22.3536 11.9536C22.4473 11.8598 22.5 11.7327 22.5 11.6001V9.00005Z" fill="white"/>
</svg>
