<svg width="35" height="35" viewBox="0 0 35 35" fill="none" xmlns="http://www.w3.org/2000/svg">
<rect width="35" height="35" rx="17.5" fill="#008A01"/>
<path d="M17.5023 12.114C14.5211 12.114 12.1164 14.5187 12.1164 17.5C12.1164 20.4812 14.5211 22.8859 17.5023 22.8859C20.4836 22.8859 22.8883 20.4812 22.8883 17.5C22.8883 14.5187 20.4836 12.114 17.5023 12.114ZM17.5023 21.0015C15.5758 21.0015 14.0008 19.4312 14.0008 17.5C14.0008 15.5687 15.5711 13.9984 17.5023 13.9984C19.4336 13.9984 21.0039 15.5687 21.0039 17.5C21.0039 19.4312 19.4289 21.0015 17.5023 21.0015ZM24.3648 11.8937C24.3648 12.5922 23.8023 13.15 23.1086 13.15C22.4102 13.15 21.8523 12.5875 21.8523 11.8937C21.8523 11.2 22.4148 10.6375 23.1086 10.6375C23.8023 10.6375 24.3648 11.2 24.3648 11.8937ZM27.932 13.1687C27.8523 11.4859 27.468 9.99529 26.2352 8.76716C25.007 7.53904 23.5164 7.15466 21.8336 7.07029C20.0992 6.97185 14.9008 6.97185 13.1664 7.07029C11.4883 7.14998 9.99766 7.53435 8.76484 8.76248C7.53203 9.9906 7.15234 11.4812 7.06797 13.164C6.96953 14.8984 6.96953 20.0968 7.06797 21.8312C7.14766 23.514 7.53203 25.0047 8.76484 26.2328C9.99766 27.4609 11.4836 27.8453 13.1664 27.9297C14.9008 28.0281 20.0992 28.0281 21.8336 27.9297C23.5164 27.85 25.007 27.4656 26.2352 26.2328C27.4633 25.0047 27.8477 23.514 27.932 21.8312C28.0305 20.0968 28.0305 14.9031 27.932 13.1687ZM25.6914 23.6922C25.3258 24.6109 24.618 25.3187 23.6945 25.689C22.3117 26.2375 19.0305 26.1109 17.5023 26.1109C15.9742 26.1109 12.6883 26.2328 11.3102 25.689C10.3914 25.3234 9.68359 24.6156 9.31328 23.6922C8.76484 22.3094 8.89141 19.0281 8.89141 17.5C8.89141 15.9719 8.76953 12.6859 9.31328 11.3078C9.67891 10.389 10.3867 9.68123 11.3102 9.31091C12.693 8.76248 15.9742 8.88904 17.5023 8.88904C19.0305 8.88904 22.3164 8.76716 23.6945 9.31091C24.6133 9.67654 25.3211 10.3844 25.6914 11.3078C26.2398 12.6906 26.1133 15.9719 26.1133 17.5C26.1133 19.0281 26.2398 22.314 25.6914 23.6922Z" fill="white"/>
</svg>
