<svg width="35" height="35" viewBox="0 0 35 35" fill="none" xmlns="http://www.w3.org/2000/svg">
<rect width="35" height="35" rx="17.5" fill="#008A01"/>
<path d="M20.65 13.9001C19.8835 13.8974 19.1241 14.046 18.4151 14.3371C17.7061 14.6283 17.0615 15.0564 16.5182 15.597C15.9748 16.1376 15.5434 16.78 15.2485 17.4875C14.9537 18.1949 14.8013 18.9536 14.8 19.7201V25.6001C14.8 25.8388 14.8948 26.0677 15.0636 26.2365C15.2324 26.4052 15.4613 26.5001 15.7 26.5001H17.8C18.0387 26.5001 18.2676 26.4052 18.4364 26.2365C18.6052 26.0677 18.7 25.8388 18.7 25.6001V19.7201C18.6998 19.4475 18.757 19.1779 18.868 18.9289C18.979 18.6799 19.1412 18.4571 19.3441 18.275C19.5469 18.0929 19.7859 17.9556 20.0453 17.872C20.3048 17.7885 20.579 17.7606 20.85 17.7901C21.336 17.8513 21.7826 18.0887 22.1052 18.4574C22.4278 18.826 22.6038 19.3002 22.6 19.7901V25.6001C22.6 25.8388 22.6948 26.0677 22.8636 26.2365C23.0324 26.4052 23.2613 26.5001 23.5 26.5001H25.6C25.8387 26.5001 26.0676 26.4052 26.2364 26.2365C26.4052 26.0677 26.5 25.8388 26.5 25.6001V19.7201C26.4987 18.9536 26.3462 18.1949 26.0514 17.4875C25.7566 16.78 25.3252 16.1376 24.7818 15.597C24.2385 15.0564 23.5939 14.6283 22.8849 14.3371C22.1759 14.046 21.4164 13.8974 20.65 13.9001Z" fill="white"/>
<path d="M12.1 14.8H9.4C8.90294 14.8 8.5 15.203 8.5 15.7V25.6C8.5 26.0971 8.90294 26.5 9.4 26.5H12.1C12.5971 26.5 13 26.0971 13 25.6V15.7C13 15.203 12.5971 14.8 12.1 14.8Z" fill="white"/>
<path d="M10.75 13C11.9926 13 13 11.9926 13 10.75C13 9.50736 11.9926 8.5 10.75 8.5C9.50736 8.5 8.5 9.50736 8.5 10.75C8.5 11.9926 9.50736 13 10.75 13Z" fill="white"/>
</svg>
