<svg width="80" height="80" viewBox="0 0 80 80" fill="none" xmlns="http://www.w3.org/2000/svg">
<g clip-path="url(#clip0_13_23)">
<path d="M72.1656 68.75C71.9462 69.1301 71.6305 69.4458 71.2503 69.6652C70.8702 69.8846 70.4389 70.0001 70 70H10C9.56138 69.9996 9.13059 69.8837 8.7509 69.6641C8.37121 69.4445 8.05598 69.1289 7.83686 68.7489C7.61774 68.3689 7.50245 67.938 7.50256 67.4994C7.50268 67.0608 7.61819 66.6299 7.8375 66.25C12.5969 58.0219 19.9312 52.1219 28.4906 49.325C24.2568 46.8046 20.9673 42.964 19.1275 38.3931C17.2876 33.8222 16.999 28.7738 18.3061 24.023C19.6131 19.2722 22.4435 15.0819 26.3626 12.0954C30.2817 9.10894 35.0727 7.49152 40 7.49152C44.9273 7.49152 49.7183 9.10894 53.6374 12.0954C57.5565 15.0819 60.3869 19.2722 61.6939 24.023C63.001 28.7738 62.7124 33.8222 60.8725 38.3931C59.0327 42.964 55.7432 46.8046 51.5094 49.325C60.0688 52.1219 67.4031 58.0219 72.1625 66.25C72.3824 66.6298 72.4985 67.0608 72.499 67.4996C72.4995 67.9384 72.3846 68.3697 72.1656 68.75Z" fill="#008A01"/>
</g>
<defs>
<clipPath id="clip0_13_23">
<rect width="80" height="80" fill="white"/>
</clipPath>
</defs>
</svg>
