<svg width="35" height="35" viewBox="0 0 35 35" fill="none" xmlns="http://www.w3.org/2000/svg">
<rect width="35" height="35" rx="17.5" fill="#008A01"/>
<path d="M28.4023 12.0035C28.1406 11.018 27.3695 10.242 26.3904 9.97858C24.6159 9.5 17.5 9.5 17.5 9.5C17.5 9.5 10.3842 9.5 8.60953 9.97858C7.63048 10.242 6.8594 11.018 6.59769 12.0035C6.12219 13.7896 6.12219 17.5162 6.12219 17.5162C6.12219 17.5162 6.12219 21.2427 6.59769 23.0289C6.8594 24.0143 7.63048 24.758 8.60953 25.0214C10.3842 25.5 17.5 25.5 17.5 25.5C17.5 25.5 24.6158 25.5 26.3904 25.0214C27.3695 24.758 28.1406 24.0143 28.4023 23.0289C28.8778 21.2427 28.8778 17.5162 28.8778 17.5162C28.8778 17.5162 28.8778 13.7896 28.4023 12.0035ZM15.1727 20.8996V14.1327L21.1202 17.5162L15.1727 20.8996Z" fill="white"/>
</svg>
